PathFileType	4	(X/Y/Z)	s01c0301.trc
DataRate	CameraRate	NumFrames	NumMarkers	Units	OrigDataRate	OrigDataStartFrame	OrigNumFrames
200	200	4	48	mm	200	1000	2000
Frame#	Time	racr			lacr			c7			jug			rlel			rdr			llel			ldr			s2			lic			ric			lasi			rasi			rpsi			lpsi			rgt			lgt			rth1			rth2			rth3			rth4			rlfc			rsh1			rsh2			rsh3			rsh4			rlmal			rmmal			rcal			rtoe			rmt5			lth1			lth2			lth4			lth3			llfc			lsh1			lsh2			lsh3			lsh4			llmal			lmmal			lcal			ltoe			lmt5			SBIKE			LBIKE			RBIKE			
		X1	Y1	Z1	X2	Y2	Z2	X3	Y3	Z3	X4	Y4	Z4	X5	Y5	Z5	X6	Y6	Z6	X7	Y7	Z7	X8	Y8	Z8	X9	Y9	Z9	X10	Y10	Z10	X11	Y11	Z11	X12	Y12	Z12	X13	Y13	Z13	X14	Y14	Z14	X15	Y15	Z15	X16	Y16	Z16	X17	Y17	Z17	X18	Y18	Z18	X19	Y19	Z19	X20	Y20	Z20	X21	Y21	Z21	X22	Y22	Z22	X23	Y23	Z23	X24	Y24	Z24	X25	Y25	Z25	X26	Y26	Z26	X27	Y27	Z27	X28	Y28	Z28	X29	Y29	Z29	X30	Y30	Z30	X31	Y31	Z31	X32	Y32	Z32	X33	Y33	Z33	X34	Y34	Z34	X35	Y35	Z35	X36	Y36	Z36	X37	Y37	Z37	X38	Y38	Z38	X39	Y39	Z39	X40	Y40	Z40	X41	Y41	Z41	X42	Y42	Z42	X43	Y43	Z43	X44	Y44	Z44	X45	Y45	Z45	X46	Y46	Z46	X47	Y47	Z47	X48	Y48	Z48	
1000	5.0000	744.749756	1355.328613	-144.310577	747.698608	1286.271973	-465.799591	725.324341	1400.935669	-305.647186	701.047485	1236.228638	-286.725433	670.590515	1093.735352	-9.273474	736.745911	849.364502	-61.756866	591.742737	1049.443359	-573.369873	720.735107	877.144226	-441.791290	178.821365	1230.329346	-252.017715	334.238617	1209.322876	-435.814209	349.122955	1230.790894	-111.274055	336.166962	1162.285889	-408.090363	365.964478	1178.174683	-136.130722	215.208923	1272.207642	-204.606659	206.347275	1266.623657	-309.700897	294.071777	1118.294678	-67.521019	265.979736	1075.353760	-440.588501	380.520477	1016.226257	-54.238609	435.108582	954.150513	-61.179970	488.908051	882.117981	-71.422844	473.158752	985.813293	-86.781258	507.786346	770.589905	-91.619690	402.829956	712.703796	-55.946476	332.447906	665.532898	-59.409710	253.501587	624.765015	-68.307861	356.288788	627.997498	-99.509453	139.169479	574.533752	-85.031174	173.649734	550.909119	-161.936157	97.969612	595.886780	-139.480286	202.732208	344.273468	-139.659500	131.697754	421.205688	-65.935684	306.974243	954.879150	-437.294128	364.114288	887.016968	-433.447296	406.710510	920.735352	-431.851105	411.847443	818.369507	-413.893463	460.262054	715.922363	-393.771820	397.647614	622.760132	-431.832153	369.713043	540.180847	-427.475128	339.711121	460.612030	-417.407440	421.644897	525.076477	-397.944244	291.093628	342.735443	-405.910553	344.165375	358.946625	-329.264282	238.239197	323.266266	-366.790222	495.038300	219.195129	-370.516632	389.371857	229.259613	-438.662994	-222.451599	893.348938	-250.052170	-11.974895	84.508041	-453.684448	-20.088713	80.949486	-53.568245	
1001	5.0050	744.283813	1356.099487	-144.092010	748.233276	1285.546997	-464.638153	725.283813	1401.043457	-305.653809	701.053650	1236.754395	-285.862305	670.259521	1094.264404	-10.167669	736.761169	849.680298	-62.080936	593.594177	1048.997070	-574.319092	720.965332	876.316223	-442.197327	178.483795	1229.109619	-254.013779	333.587433	1206.769165	-437.258057	348.206146	1231.968506	-112.422279	336.506378	1160.127197	-409.192963	365.428925	1179.155762	-136.860306	214.495178	1271.410156	-206.720459	206.413406	1265.103394	-311.715698	293.893677	1119.638916	-67.855728	264.751343	1073.446899	-440.894379	382.455261	1019.686035	-53.141792	438.503601	958.822571	-59.721104	494.029510	888.093994	-69.718117	475.940674	991.421631	-85.305321	513.418396	776.614624	-90.001640	408.642273	719.683899	-54.948910	337.670013	673.373230	-58.741714	258.301422	633.563721	-68.102478	361.322388	635.274231	-98.403946	143.552567	583.611633	-85.453491	178.463196	560.384644	-162.224838	101.809013	604.476685	-139.851700	209.916946	354.258545	-139.648438	137.918671	430.385193	-66.106224	302.662323	952.396179	-437.575928	358.119049	882.986938	-433.804260	401.667999	915.347412	-432.908325	403.916565	813.021606	-414.404877	451.512817	709.751343	-394.419769	390.757812	615.678406	-432.475494	363.650818	532.745239	-427.910858	334.341339	453.049377	-418.025757	415.328247	518.386169	-397.665955	285.843842	335.229492	-405.798676	341.056763	353.500397	-330.312012	233.653320	316.700714	-366.744720	489.003418	209.042374	-370.352631	383.448975	220.591812	-438.570740	-222.458466	893.345642	-250.068176	-11.985220	84.496147	-453.682068	-20.078293	80.956017	-53.578365	
1002	5.0100	743.657898	1356.989136	-143.636230	748.824097	1285.064697	-463.346680	725.207825	1401.258179	-305.464050	701.131042	1237.133179	-284.990173	669.805115	1094.736694	-10.979039	737.064087	850.118591	-62.842941	595.650635	1048.797607	-575.041809	720.902405	875.287720	-442.813904	178.245605	1228.168945	-256.136383	333.451477	1204.694458	-438.617493	347.362823	1233.157959	-113.662277	336.836365	1158.127441	-410.404541	364.778870	1180.224121	-137.716812	213.796249	1270.757202	-208.979248	206.534546	1263.727539	-313.809814	293.647766	1121.039551	-68.279770	263.374146	1071.930176	-441.249878	383.866211	1023.110596	-52.164486	441.400543	963.564148	-58.138172	498.623352	894.037292	-67.839676	478.264618	997.046936	-83.665741	519.302856	783.024109	-88.146332	414.557770	726.754883	-54.072582	343.136597	681.269897	-58.242317	263.435028	642.204651	-68.001419	366.735870	642.660950	-97.467033	149.038483	591.805115	-85.998260	185.037170	569.453003	-162.767914	106.379356	612.588440	-140.218826	217.541367	363.730957	-139.653336	144.745728	439.186493	-66.152702	298.510986	950.186523	-438.089813	352.122009	879.342041	-434.531891	396.581482	910.626282	-433.892181	396.116547	808.299561	-415.222778	442.536377	703.819946	-395.166443	383.304108	608.789124	-433.379272	357.003571	525.746277	-428.431671	328.513184	445.751984	-418.480194	408.524323	512.061462	-397.701416	279.711151	328.737549	-406.405426	337.378662	348.445740	-331.268127	228.589767	310.886505	-367.088440	481.856079	198.557007	-369.691223	377.077698	212.349899	-438.499695	-222.483398	893.335999	-250.056274	-11.966765	84.499077	-453.687439	-20.064537	80.953522	-53.576954	
1003	5.0150	742.931458	1358.634644	-141.316330	749.354980	1284.821533	-462.011078	725.079041	1401.601074	-305.102631	701.188354	1237.881226	-283.991882	669.325012	1095.246948	-11.795251	736.874512	850.291443	-62.652809	597.904846	1048.484863	-575.540161	721.398682	874.485352	-443.069275	178.079987	1227.423218	-258.225586	333.780365	1203.319946	-440.108063	346.378082	1234.260864	-114.874161	337.314148	1156.542603	-411.574646	364.143188	1181.303955	-138.504761	213.063049	1270.396606	-211.131485	206.791870	1262.598145	-316.106812	293.376984	1122.498779	-68.790886	261.992706	1070.634399	-441.630981	384.805389	1026.579224	-51.209682	443.741730	968.258728	-56.512207	502.927582	900.030457	-65.634872	480.015991	1002.515381	-82.071297	525.288757	789.718140	-86.335121	420.596100	734.070374	-53.238075	349.012024	688.866821	-57.711578	269.048706	650.314026	-67.968918	372.710022	650.285950	-96.840218	154.381378	600.106628	-86.045914	190.327652	577.430786	-162.657791	111.625771	620.276917	-140.542084	225.540436	372.753571	-139.720230	151.973022	447.551697	-66.333237	294.458771	948.296570	-438.804230	346.280243	876.040161	-435.450012	391.357849	906.401978	-435.013519	388.614563	804.048828	-416.259216	433.270599	698.217773	-396.097717	375.248352	602.421631	-434.396393	349.825867	519.105347	-429.114197	322.140930	438.926361	-419.032440	401.277161	506.075348	-398.088531	273.953186	321.714111	-405.897430	333.165985	343.783997	-332.136475	223.399551	305.349365	-366.567200	475.455811	189.695389	-370.314209	370.213562	204.605042	-438.443848	-222.542664	893.290344	-250.213943	-11.966675	84.491547	-453.671539	-20.054436	80.967331	-53.568470	
